<?xml version="1.0" encoding="UTF-8" standalone="no"?><!DOCTYPE svg PUBLIC "-//W3C//DTD SVG 1.1//EN" "http://www.w3.org/Graphics/SVG/1.1/DTD/svg11.dtd"><!-- Generated by graphviz version 2.40.1 (20161225.0304)
 --><!-- Title: %0 Pages: 1 --><svg xmlns="http://www.w3.org/2000/svg" xmlns:xlink="http://www.w3.org/1999/xlink" width="2592pt" height="402pt" viewBox="0.00 0.00 2592.00 402.26">
<g id="graph0" class="graph" transform="scale(.8243 .8243) rotate(0) translate(4 484)">
<title>%0</title>
<polygon fill="#ffffff" stroke="transparent" points="-4,4 -4,-484 3140.5044,-484 3140.5044,4 -4,4"/>
<!-- 4 -->
<g id="node1" class="node">
<title>4</title>
<ellipse fill="none" stroke="#000000" cx="372.7393" cy="-106.8" rx="372.9788" ry="18"/>
<text text-anchor="middle" x="372.7393" y="-102.6" font-family="Times,serif" font-size="14.00" fill="#000000">[has(appetizer), has(tray), robotAt(table2), ~robotAt(counter), ~robotAt(southTable)] (r:1.0 ) </text>
</g>
<!-- 6 -->
<g id="node2" class="node">
<title>6</title>
<ellipse fill="none" stroke="#000000" cx="1173.7393" cy="-18" rx="448.9964" ry="18"/>
<text text-anchor="middle" x="1173.7393" y="-13.8" font-family="Times,serif" font-size="14.00" fill="#000000">[has(appetizer), ~robotAt(corner2), has(tray), robotAt(table2), ~robotAt(counter), ~robotAt(southTable)] (r:1.0 ) </text>
</g>
<!-- 9 -->
<g id="node3" class="node">
<title>9</title>
<ellipse fill="none" stroke="#000000" cx="1952.7393" cy="-106.8" rx="350.5126" ry="18"/>
<text text-anchor="middle" x="1952.7393" y="-102.6" font-family="Times,serif" font-size="14.00" fill="#000000">[~robotAt(northTable), has(tray), robotAt(table2), ~robotAt(counter), has(cup)] (r:1.0 ) </text>
</g>
<!-- 11 -->
<g id="node4" class="node">
<title>11</title>
<ellipse fill="none" stroke="#000000" cx="2709.7393" cy="-18" rx="426.5303" ry="18"/>
<text text-anchor="middle" x="2709.7393" y="-13.8" font-family="Times,serif" font-size="14.00" fill="#000000">[~robotAt(northTable), ~robotAt(corner1), has(tray), robotAt(table2), ~robotAt(counter), has(cup)] (r:1.0 ) </text>
</g>
<!-- 0 -->
<g id="node5" class="node">
<title>0</title>
<ellipse fill="none" stroke="#000000" cx="1615.7393" cy="-462" rx="146.3305" ry="18"/>
<text text-anchor="middle" x="1615.7393" y="-457.8" font-family="Times,serif" font-size="14.00" fill="#000000">[robotAt(counter)] (reward:-0.04 ) </text>
</g>
<!-- 1 -->
<g id="node6" class="node">
<title>1</title>
<ellipse fill="none" stroke="#000000" cx="1615.7393" cy="-373.2" rx="185.1155" ry="18"/>
<text text-anchor="middle" x="1615.7393" y="-369" font-family="Times,serif" font-size="14.00" fill="#000000">[has(tray), robotAt(counter)] (reward:-0.04 ) </text>
</g>
<!-- 0&#45;&gt;1 -->
<g id="edge1" class="edge">
<title>0-&gt;1</title>
<path fill="none" stroke="#000000" d="M1615.7393,-443.6006C1615.7393,-431.4949 1615.7393,-415.4076 1615.7393,-401.6674"/>
<polygon fill="#000000" stroke="#000000" points="1619.2394,-401.272 1615.7393,-391.272 1612.2394,-401.2721 1619.2394,-401.272"/>
<text text-anchor="middle" x="1720.3116" y="-413.4" font-family="Times,serif" font-size="14.00" fill="#000000">grasp_object(tray) (ProbTrans : 1,00)</text>
</g>
<!-- 2 -->
<g id="node7" class="node">
<title>2</title>
<ellipse fill="none" stroke="#000000" cx="1332.7393" cy="-284.4" rx="274.9757" ry="18"/>
<text text-anchor="middle" x="1332.7393" y="-280.2" font-family="Times,serif" font-size="14.00" fill="#000000">[robotAt(southTable), ~robotAt(counter), has(tray)] (reward:-0.04 ) </text>
</g>
<!-- 1&#45;&gt;2 -->
<g id="edge2" class="edge">
<title>1-&gt;2</title>
<path fill="none" stroke="#000000" d="M1560.8385,-355.9732C1514.4253,-341.4096 1447.8146,-320.5084 1398.5497,-305.05"/>
<polygon fill="#000000" stroke="#000000" points="1399.5283,-301.6889 1388.9391,-302.0344 1397.4325,-308.3678 1399.5283,-301.6889"/>
<text text-anchor="middle" x="1634.8365" y="-324.6" font-family="Times,serif" font-size="14.00" fill="#000000">moveTo(counter,southTable) (ProbTrans : 1,00)</text>
</g>
<!-- 7 -->
<g id="node10" class="node">
<title>7</title>
<ellipse fill="none" stroke="#000000" cx="1925.7393" cy="-284.4" rx="274.394" ry="18"/>
<text text-anchor="middle" x="1925.7393" y="-280.2" font-family="Times,serif" font-size="14.00" fill="#000000">[~robotAt(counter), has(tray), robotAt(northTable)] (reward:-0.04 ) </text>
</g>
<!-- 1&#45;&gt;7 -->
<g id="edge3" class="edge">
<title>1-&gt;7</title>
<path fill="none" stroke="#000000" d="M1695.3395,-356.8609C1720.5608,-351.2047 1748.4529,-344.4487 1773.7393,-337.2 1805.6883,-328.0414 1840.7706,-315.9917 1869.1734,-305.7162"/>
<polygon fill="#000000" stroke="#000000" points="1870.7276,-308.8751 1878.9252,-302.1633 1868.3313,-302.2981 1870.7276,-308.8751"/>
<text text-anchor="middle" x="1959.4445" y="-324.6" font-family="Times,serif" font-size="14.00" fill="#000000">moveTo(counter,northTable) (ProbTrans : 1,00)</text>
</g>
<!-- 3 -->
<g id="node8" class="node">
<title>3</title>
<ellipse fill="none" stroke="#000000" cx="1173.7393" cy="-195.6" rx="334.0052" ry="18"/>
<text text-anchor="middle" x="1173.7393" y="-191.4" font-family="Times,serif" font-size="14.00" fill="#000000">[has(appetizer), robotAt(southTable), ~robotAt(counter), has(tray)] (reward:-0.04 ) </text>
</g>
<!-- 2&#45;&gt;3 -->
<g id="edge4" class="edge">
<title>2-&gt;3</title>
<path fill="none" stroke="#000000" d="M1300.5633,-266.43C1275.7792,-252.5883 1241.3473,-233.3584 1214.6135,-218.4279"/>
<polygon fill="#000000" stroke="#000000" points="1216.3048,-215.3636 1205.8675,-213.5433 1212.8915,-221.4751 1216.3048,-215.3636"/>
<text text-anchor="middle" x="1387.0788" y="-235.8" font-family="Times,serif" font-size="14.00" fill="#000000">grasp_object(appetizer) (ProbTrans : 1,00)</text>
</g>
<!-- 3&#45;&gt;4 -->
<g id="edge5" class="edge">
<title>3-&gt;4</title>
<path fill="none" stroke="#000000" d="M1027.2895,-179.3644C887.095,-163.8222 676.1663,-140.4383 531.8849,-124.4431"/>
<polygon fill="#000000" stroke="#000000" points="531.9385,-120.9277 521.6137,-123.3044 531.1671,-127.8851 531.9385,-120.9277"/>
<text text-anchor="middle" x="976.9515" y="-147" font-family="Times,serif" font-size="14.00" fill="#000000">moveTo(southTable,table2) (ProbTrans : 1,00)</text>
</g>
<!-- 5 -->
<g id="node9" class="node">
<title>5</title>
<ellipse fill="none" stroke="#000000" cx="1173.7393" cy="-106.8" rx="410.0229" ry="18"/>
<text text-anchor="middle" x="1173.7393" y="-102.6" font-family="Times,serif" font-size="14.00" fill="#000000">[has(appetizer), robotAt(corner2), has(tray), ~robotAt(counter), ~robotAt(southTable)] (reward:-0.04 ) </text>
</g>
<!-- 3&#45;&gt;5 -->
<g id="edge6" class="edge">
<title>3-&gt;5</title>
<path fill="none" stroke="#000000" d="M1173.7393,-177.2006C1173.7393,-165.0949 1173.7393,-149.0076 1173.7393,-135.2674"/>
<polygon fill="#000000" stroke="#000000" points="1177.2394,-134.872 1173.7393,-124.872 1170.2394,-134.8721 1177.2394,-134.872"/>
<text text-anchor="middle" x="1309.2215" y="-147" font-family="Times,serif" font-size="14.00" fill="#000000">moveTo(southTable,corner2) (ProbTrans : 1,00)</text>
</g>
<!-- 5&#45;&gt;6 -->
<g id="edge7" class="edge">
<title>5-&gt;6</title>
<path fill="none" stroke="#000000" d="M1173.7393,-88.4006C1173.7393,-76.2949 1173.7393,-60.2076 1173.7393,-46.4674"/>
<polygon fill="#000000" stroke="#000000" points="1177.2394,-46.072 1173.7393,-36.072 1170.2394,-46.0721 1177.2394,-46.072"/>
<text text-anchor="middle" x="1295.2229" y="-58.2" font-family="Times,serif" font-size="14.00" fill="#000000">moveTo(corner2,table2) (ProbTrans : 1,00)</text>
</g>
<!-- 8 -->
<g id="node11" class="node">
<title>8</title>
<ellipse fill="none" stroke="#000000" cx="1952.7393" cy="-195.6" rx="312.0391" ry="18"/>
<text text-anchor="middle" x="1952.7393" y="-191.4" font-family="Times,serif" font-size="14.00" fill="#000000">[~robotAt(counter), has(cup), has(tray), robotAt(northTable)] (reward:-0.04 ) </text>
</g>
<!-- 7&#45;&gt;8 -->
<g id="edge8" class="edge">
<title>7-&gt;8</title>
<path fill="none" stroke="#000000" d="M1931.3337,-266.0006C1935.0874,-253.6552 1940.1001,-237.1689 1944.331,-223.2539"/>
<polygon fill="#000000" stroke="#000000" points="1947.6839,-224.2577 1947.2444,-213.672 1940.9867,-222.2214 1947.6839,-224.2577"/>
<text text-anchor="middle" x="2045.536" y="-235.8" font-family="Times,serif" font-size="14.00" fill="#000000">grasp_object(cup) (ProbTrans : 1,00)</text>
</g>
<!-- 8&#45;&gt;9 -->
<g id="edge9" class="edge">
<title>8-&gt;9</title>
<path fill="none" stroke="#000000" d="M1952.7393,-177.2006C1952.7393,-165.0949 1952.7393,-149.0076 1952.7393,-135.2674"/>
<polygon fill="#000000" stroke="#000000" points="1956.2394,-134.872 1952.7393,-124.872 1949.2394,-134.8721 1956.2394,-134.872"/>
<text text-anchor="middle" x="2083.5595" y="-147" font-family="Times,serif" font-size="14.00" fill="#000000">moveTo(northTable,table2) (ProbTrans : 1,00)</text>
</g>
<!-- 10 -->
<g id="node12" class="node">
<title>10</title>
<ellipse fill="none" stroke="#000000" cx="2709.7393" cy="-106.8" rx="388.0567" ry="18"/>
<text text-anchor="middle" x="2709.7393" y="-102.6" font-family="Times,serif" font-size="14.00" fill="#000000">[~robotAt(northTable), robotAt(corner1), has(tray), ~robotAt(counter), has(cup)] (reward:-0.04 ) </text>
</g>
<!-- 8&#45;&gt;10 -->
<g id="edge10" class="edge">
<title>8-&gt;10</title>
<path fill="none" stroke="#000000" d="M2090.7045,-179.416C2222.3822,-163.9695 2420.3781,-140.7436 2556.8122,-124.7391"/>
<polygon fill="#000000" stroke="#000000" points="2557.4132,-128.1927 2566.9373,-123.5514 2556.5976,-121.2404 2557.4132,-128.1927"/>
<text text-anchor="middle" x="2534.8295" y="-147" font-family="Times,serif" font-size="14.00" fill="#000000">moveTo(northTable,corner1) (ProbTrans : 1,00)</text>
</g>
<!-- 10&#45;&gt;11 -->
<g id="edge11" class="edge">
<title>10-&gt;11</title>
<path fill="none" stroke="#000000" d="M2709.7393,-88.4006C2709.7393,-76.2949 2709.7393,-60.2076 2709.7393,-46.4674"/>
<polygon fill="#000000" stroke="#000000" points="2713.2394,-46.072 2709.7393,-36.072 2706.2394,-46.0721 2713.2394,-46.072"/>
<text text-anchor="middle" x="2831.2229" y="-58.2" font-family="Times,serif" font-size="14.00" fill="#000000">moveTo(corner1,table2) (ProbTrans : 1,00)</text>
</g>
</g>
</svg>