<?xml version="1.0" encoding="UTF-8" standalone="no"?><!DOCTYPE svg PUBLIC "-//W3C//DTD SVG 1.1//EN" "http://www.w3.org/Graphics/SVG/1.1/DTD/svg11.dtd"><!-- Generated by graphviz version 2.40.1 (20161225.0304)
 --><!-- Title: %0 Pages: 1 --><svg xmlns="http://www.w3.org/2000/svg" xmlns:xlink="http://www.w3.org/1999/xlink" width="4320pt" height="342pt" viewBox="0.00 0.00 4320.00 341.66">
<g id="graph0" class="graph" transform="scale(.4435 .4435) rotate(0) translate(4 766.4)">
<title>%0</title>
<polygon fill="#ffffff" stroke="transparent" points="-4,4 -4,-766.4 9737.0197,-766.4 9737.0197,4 -4,4"/>
<!-- 7 -->
<g id="node1" class="node">
<title>7</title>
<polygon fill="none" stroke="#40b9e5" points="3599.3164,-111.3442 3599.3164,-126.2558 2546.2418,-136.8 1056.9693,-136.8 3.8947,-126.2558 3.8947,-111.3442 1056.9693,-100.8 2546.2418,-100.8 3599.3164,-111.3442"/>
<polygon fill="none" stroke="#40b9e5" points="3603.3167,-107.384 3603.3167,-130.216 2546.2618,-140.8 1056.9493,-140.8 -.1056,-130.216 -.1056,-107.384 1056.9493,-96.8 2546.2618,-96.8 3603.3167,-107.384"/>
<text text-anchor="middle" x="1801.6056" y="-114.6" font-family="Times,serif" font-size="14.00" fill="#000000">[holding(rightArm,cup), ~on(tray,placingAreaEastRightCounter1), on(appetizer,placingAreaSouthTable), ~robotAt(preManipulationAreaEastCounter1), ~on(cup,placingAreaNorthTable), holding(leftArm,tray), ~robotAt(preManipulationNorthTable), ~holding(leftArm,nothing), ~robotAt(manipulationNorthTable), robotAt(table2), ~robotAt(manipulationAreaEastCounter1), ~holding(rightArm,nothing)] (r:1.0 ), Utility : 1.0 </text>
</g>
<!-- 9 -->
<g id="node2" class="node">
<title>9</title>
<polygon fill="none" stroke="#40b9e5" points="5652.3597,-14.5442 5652.3597,-29.4558 4551.2252,-40 2993.9859,-40 1892.8514,-29.4558 1892.8514,-14.5442 2993.9859,-4 4551.2252,-4 5652.3597,-14.5442"/>
<polygon fill="none" stroke="#40b9e5" points="5656.3594,-10.5823 5656.3594,-33.4177 4551.2444,-44 2993.9667,-44 1888.8517,-33.4177 1888.8517,-10.5823 2993.9667,0 4551.2444,0 5656.3594,-10.5823"/>
<text text-anchor="middle" x="3772.6056" y="-17.8" font-family="Times,serif" font-size="14.00" fill="#000000">[holding(rightArm,cup), ~robotAt(corner1), ~on(tray,placingAreaEastRightCounter1), on(appetizer,placingAreaSouthTable), ~robotAt(preManipulationAreaEastCounter1), ~on(cup,placingAreaNorthTable), holding(leftArm,tray), ~robotAt(preManipulationNorthTable), ~holding(leftArm,nothing), ~robotAt(manipulationNorthTable), robotAt(table2), ~robotAt(manipulationAreaEastCounter1), ~holding(rightArm,nothing)] (r:1.0 ), Utility : 1.0 </text>
</g>
<!-- 14 -->
<g id="node3" class="node">
<title>14</title>
<polygon fill="none" stroke="#40b9e5" points="7627.8907,-111.3442 7627.8907,-126.2558 6549.2908,-136.8 5023.9203,-136.8 3945.3204,-126.2558 3945.3204,-111.3442 5023.9203,-100.8 6549.2908,-100.8 7627.8907,-111.3442"/>
<polygon fill="none" stroke="#40b9e5" points="7631.891,-107.3831 7631.891,-130.2169 6549.3104,-140.8 5023.9007,-140.8 3941.3201,-130.2169 3941.3201,-107.3831 5023.9007,-96.8 6549.3104,-96.8 7631.891,-107.3831"/>
<text text-anchor="middle" x="5786.6056" y="-114.6" font-family="Times,serif" font-size="14.00" fill="#000000">[~on(tray,placingAreaEastRightCounter1), ~robotAt(preManipulationAreaEastCounter1), holding(rightArm,appetizer), holding(leftArm,tray), ~on(appetizer,placingAreaSouthTable), on(cup,placingAreaNorthTable), ~holding(leftArm,nothing), ~robotAt(manipulationAreaSouthTable), robotAt(table2), ~robotAt(manipulationAreaEastCounter1), ~robotAt(preManipulationSouthTable), ~holding(rightArm,nothing)] (r:1.0 ), Utility : 1.0 </text>
</g>
<!-- 16 -->
<g id="node4" class="node">
<title>16</title>
<polygon fill="none" stroke="#40b9e5" points="9728.934,-14.5442 9728.934,-29.4558 8602.2743,-40 7008.9368,-40 5882.2771,-29.4558 5882.2771,-14.5442 7008.9368,-4 8602.2743,-4 9728.934,-14.5442"/>
<polygon fill="none" stroke="#40b9e5" points="9732.9338,-10.5814 9732.9338,-33.4186 8602.293,-44 7008.9181,-44 5878.2773,-33.4186 5878.2773,-10.5814 7008.9181,0 8602.293,0 9732.9338,-10.5814"/>
<text text-anchor="middle" x="7805.6056" y="-17.8" font-family="Times,serif" font-size="14.00" fill="#000000">[~robotAt(corner2), ~on(tray,placingAreaEastRightCounter1), ~robotAt(preManipulationAreaEastCounter1), holding(rightArm,appetizer), holding(leftArm,tray), ~on(appetizer,placingAreaSouthTable), on(cup,placingAreaNorthTable), ~holding(leftArm,nothing), ~robotAt(manipulationAreaSouthTable), robotAt(table2), ~robotAt(manipulationAreaEastCounter1), ~robotAt(preManipulationSouthTable), ~holding(rightArm,nothing)] (r:1.0 ), Utility : 1.0 </text>
</g>
<!-- 0 -->
<g id="node5" class="node">
<title>0</title>
<ellipse fill="none" stroke="#40b9e5" cx="5492.6056" cy="-744.4" rx="218.8084" ry="18"/>
<text text-anchor="middle" x="5492.6056" y="-740.2" font-family="Times,serif" font-size="14.00" fill="#000000"> S0   : (reward:-0.04 ), Utility : 0.7199999999999998 </text>
</g>
<!-- 1 -->
<g id="node6" class="node">
<title>1</title>
<ellipse fill="none" stroke="#40b9e5" cx="5492.6056" cy="-655.6" rx="218.8084" ry="18"/>
<text text-anchor="middle" x="5492.6056" y="-651.4" font-family="Times,serif" font-size="14.00" fill="#000000"> S1   : (reward:-0.04 ), Utility : 0.7599999999999998 </text>
</g>
<!-- 0&#45;&gt;1 -->
<g id="edge1" class="edge">
<title>0-&gt;1</title>
<path fill="none" stroke="#00ff00" d="M5492.6056,-726.0006C5492.6056,-714.3743 5492.6056,-699.0756 5492.6056,-685.7105"/>
<polygon fill="#00ff00" stroke="#00ff00" points="5492.6057,-685.672 5488.6056,-679.6721 5492.6056,-673.672 5496.6056,-679.672 5492.6057,-685.672"/>
<text text-anchor="middle" x="5597.1779" y="-695.8" font-family="Times,serif" font-size="14.00" fill="#000000">grasp_object(tray) (ProbTrans : 1,00)</text>
</g>
<!-- 2 -->
<g id="node7" class="node">
<title>2</title>
<ellipse fill="none" stroke="#40b9e5" cx="5492.6056" cy="-566.8" rx="218.8084" ry="18"/>
<text text-anchor="middle" x="5492.6056" y="-562.6" font-family="Times,serif" font-size="14.00" fill="#000000"> S2   : (reward:-0.04 ), Utility : 0.7999999999999998 </text>
</g>
<!-- 1&#45;&gt;2 -->
<g id="edge2" class="edge">
<title>1-&gt;2</title>
<path fill="none" stroke="#00ff00" d="M5492.6056,-637.2006C5492.6056,-625.5743 5492.6056,-610.2756 5492.6056,-596.9105"/>
<polygon fill="#00ff00" stroke="#00ff00" points="5492.6057,-596.872 5488.6056,-590.8721 5492.6056,-584.872 5496.6056,-590.872 5492.6057,-596.872"/>
<text text-anchor="middle" x="5788.658" y="-607" font-family="Times,serif" font-size="14.00" fill="#000000">move_base_blind(manipulationAreaEastCounter1,preManipulationAreaEastCounter1) (ProbTrans : 1,00)</text>
</g>
<!-- 3 -->
<g id="node8" class="node">
<title>3</title>
<ellipse fill="none" stroke="#40b9e5" cx="4485.6056" cy="-478" rx="218.8084" ry="18"/>
<text text-anchor="middle" x="4485.6056" y="-473.8" font-family="Times,serif" font-size="14.00" fill="#000000"> S3   : (reward:-0.04 ), Utility : 0.8399999999999999 </text>
</g>
<!-- 2&#45;&gt;3 -->
<g id="edge3" class="edge">
<title>2-&gt;3</title>
<path fill="none" stroke="#00ff00" d="M5343.2062,-553.6256C5156.7453,-537.1829 4839.072,-509.1696 4647.1252,-492.2432"/>
<polygon fill="#00ff00" stroke="#00ff00" points="4646.9051,-492.2239 4640.5769,-495.6814 4634.9515,-491.1697 4641.2797,-487.7123 4646.9051,-492.2239"/>
<text text-anchor="middle" x="5339.8859" y="-518.2" font-family="Times,serif" font-size="14.00" fill="#000000">moveTo(preManipulationAreaEastCounter1,preManipulationNorthTable) (ProbTrans : 1,00)</text>
</g>
<!-- 10 -->
<g id="node13" class="node">
<title>10</title>
<ellipse fill="none" stroke="#40b9e5" cx="5765.6056" cy="-478" rx="223.9655" ry="18"/>
<text text-anchor="middle" x="5765.6056" y="-473.8" font-family="Times,serif" font-size="14.00" fill="#000000"> S10   : (reward:-0.04 ), Utility : 0.8399999999999999 </text>
</g>
<!-- 2&#45;&gt;10 -->
<g id="edge4" class="edge">
<title>2-&gt;10</title>
<path fill="none" stroke="#000000" stroke-dasharray="1,5" d="M5660.4751,-555.221C5696.9422,-549.8938 5728.9904,-542.1249 5743.6056,-530.8 5752.8474,-523.6387 5758.2418,-511.8968 5761.3729,-501.3021"/>
<polygon fill="#000000" stroke="#000000" points="5757.6466,-495.8901 5767.3059,-498.4785 5766.7882,-500.4103 5757.1289,-497.822 5757.6466,-495.8901"/>
<polyline fill="none" stroke="#000000" points="5762.7351,-496.2184 5761.4409,-501.048 "/>
<text text-anchor="middle" x="6016.8936" y="-518.2" font-family="Times,serif" font-size="14.00" fill="#000000">moveTo(preManipulationAreaEastCounter1,preManipulationSouthTable) (ProbTrans : 1,00)</text>
</g>
<!-- 4 -->
<g id="node9" class="node">
<title>4</title>
<ellipse fill="none" stroke="#40b9e5" cx="3934.6056" cy="-389.2" rx="218.8084" ry="18"/>
<text text-anchor="middle" x="3934.6056" y="-385" font-family="Times,serif" font-size="14.00" fill="#000000"> S4   : (reward:-0.04 ), Utility : 0.8799999999999999 </text>
</g>
<!-- 3&#45;&gt;4 -->
<g id="edge5" class="edge">
<title>3-&gt;4</title>
<path fill="none" stroke="#00ff00" d="M4385.8236,-461.919C4290.0137,-446.4781 4145.5421,-423.1949 4046.0176,-407.1553"/>
<polygon fill="#00ff00" stroke="#00ff00" points="4045.9567,-407.1456 4039.3966,-410.1399 4034.1095,-405.2362 4040.6696,-402.2419 4045.9567,-407.1456"/>
<text text-anchor="middle" x="4516.787" y="-429.4" font-family="Times,serif" font-size="14.00" fill="#000000">move_base_blind(preManipulationNorthTable,manipulationNorthTable) (ProbTrans : 1,00)</text>
</g>
<!-- 5 -->
<g id="node10" class="node">
<title>5</title>
<ellipse fill="none" stroke="#40b9e5" cx="3796.6056" cy="-300.4" rx="218.8084" ry="18"/>
<text text-anchor="middle" x="3796.6056" y="-296.2" font-family="Times,serif" font-size="14.00" fill="#000000"> S5   : (reward:-0.04 ), Utility : 0.9199999999999999 </text>
</g>
<!-- 4&#45;&gt;5 -->
<g id="edge6" class="edge">
<title>4-&gt;5</title>
<path fill="none" stroke="#00ff00" d="M3906.6792,-371.23C3886.0102,-357.9299 3857.6101,-339.6551 3834.8349,-324.9998"/>
<polygon fill="#00ff00" stroke="#00ff00" points="3834.5817,-324.8369 3827.3715,-324.9538 3824.4904,-318.3433 3831.7006,-318.2263 3834.5817,-324.8369"/>
<text text-anchor="middle" x="3982.4023" y="-340.6" font-family="Times,serif" font-size="14.00" fill="#000000">grasp_object(cup) (ProbTrans : 1,00)</text>
</g>
<!-- 6 -->
<g id="node11" class="node">
<title>6</title>
<ellipse fill="none" stroke="#40b9e5" cx="3772.6056" cy="-211.6" rx="151.1114" ry="18"/>
<text text-anchor="middle" x="3772.6056" y="-207.4" font-family="Times,serif" font-size="14.00" fill="#000000"> S6   : (reward:-0.04 ), Utility : 0.96 </text>
</g>
<!-- 5&#45;&gt;6 -->
<g id="edge7" class="edge">
<title>5-&gt;6</title>
<path fill="none" stroke="#00ff00" d="M3791.6327,-282.0006C3788.4581,-270.2545 3784.2704,-254.7598 3780.632,-241.2978"/>
<polygon fill="#00ff00" stroke="#00ff00" points="3780.6209,-241.2564 3775.1939,-236.5079 3777.4899,-229.672 3782.9168,-234.4205 3780.6209,-241.2564"/>
<text text-anchor="middle" x="4044.787" y="-251.8" font-family="Times,serif" font-size="14.00" fill="#000000">move_base_blind(manipulationNorthTable,preManipulationNorthTable) (ProbTrans : 1,00)</text>
</g>
<!-- 6&#45;&gt;7 -->
<g id="edge8" class="edge">
<title>6-&gt;7</title>
<path fill="none" stroke="#00ff00" d="M3631.6471,-204.9633C3353.7757,-191.8804 2723.8774,-162.223 2281.055,-141.3738"/>
<polygon fill="#00ff00" stroke="#00ff00" points="2280.979,-141.3703 2274.7975,-145.0836 2268.9923,-140.8058 2275.1738,-137.0925 2280.979,-141.3703"/>
<text text-anchor="middle" x="3143.6348" y="-163" font-family="Times,serif" font-size="14.00" fill="#000000">moveTo(preManipulationNorthTable,table2) (ProbTrans : 1,00)</text>
</g>
<!-- 8 -->
<g id="node12" class="node">
<title>8</title>
<ellipse fill="none" stroke="#40b9e5" cx="3772.6056" cy="-118.8" rx="151.1114" ry="18"/>
<text text-anchor="middle" x="3772.6056" y="-114.6" font-family="Times,serif" font-size="14.00" fill="#000000"> S8   : (reward:-0.04 ), Utility : 0.96 </text>
</g>
<!-- 6&#45;&gt;8 -->
<g id="edge9" class="edge">
<title>6-&gt;8</title>
<path fill="none" stroke="#000000" stroke-dasharray="1,5" d="M3772.6056,-193.2657C3772.6056,-178.6489 3772.6056,-158.0802 3772.6056,-142.2628"/>
<polygon fill="#000000" stroke="#000000" points="3767.6056,-138.0963 3777.6056,-138.0961 3777.6056,-140.0961 3767.6056,-140.0963 3767.6056,-138.0963"/>
<polyline fill="none" stroke="#000000" points="3772.6056,-137.0962 3772.6057,-142.0962 "/>
<text text-anchor="middle" x="3955.9048" y="-163" font-family="Times,serif" font-size="14.00" fill="#000000">moveTo(preManipulationNorthTable,corner1) (ProbTrans : 1,00)</text>
</g>
<!-- 8&#45;&gt;9 -->
<g id="edge10" class="edge">
<title>8-&gt;9</title>
<path fill="none" stroke="#00ff00" d="M3772.6056,-100.5927C3772.6056,-88.2239 3772.6056,-71.4751 3772.6056,-56.617"/>
<polygon fill="#00ff00" stroke="#00ff00" points="3772.6057,-56.2041 3768.6056,-50.2041 3772.6056,-44.2041 3776.6056,-50.204 3772.6057,-56.2041"/>
<text text-anchor="middle" x="3894.0892" y="-66.2" font-family="Times,serif" font-size="14.00" fill="#000000">moveTo(corner1,table2) (ProbTrans : 1,00)</text>
</g>
<!-- 11 -->
<g id="node14" class="node">
<title>11</title>
<ellipse fill="none" stroke="#40b9e5" cx="5768.6056" cy="-389.2" rx="223.9655" ry="18"/>
<text text-anchor="middle" x="5768.6056" y="-385" font-family="Times,serif" font-size="14.00" fill="#000000"> S11   : (reward:-0.04 ), Utility : 0.8799999999999999 </text>
</g>
<!-- 10&#45;&gt;11 -->
<g id="edge11" class="edge">
<title>10-&gt;11</title>
<path fill="none" stroke="#00ff00" d="M5766.2272,-459.6006C5766.6199,-447.9743 5767.1368,-432.6756 5767.5883,-419.3105"/>
<polygon fill="#00ff00" stroke="#00ff00" points="5767.5897,-419.2652 5763.7947,-413.1335 5767.995,-407.272 5771.7901,-413.4037 5767.5897,-419.2652"/>
<text text-anchor="middle" x="6038.4006" y="-429.4" font-family="Times,serif" font-size="14.00" fill="#000000">move_base_blind(preManipulationSouthTable,manipulationAreaSouthTable) (ProbTrans : 1,00)</text>
</g>
<!-- 12 -->
<g id="node15" class="node">
<title>12</title>
<ellipse fill="none" stroke="#40b9e5" cx="5775.6056" cy="-300.4" rx="223.9655" ry="18"/>
<text text-anchor="middle" x="5775.6056" y="-296.2" font-family="Times,serif" font-size="14.00" fill="#000000"> S12   : (reward:-0.04 ), Utility : 0.9199999999999999 </text>
</g>
<!-- 11&#45;&gt;12 -->
<g id="edge12" class="edge">
<title>11-&gt;12</title>
<path fill="none" stroke="#00ff00" d="M5770.056,-370.8006C5770.9724,-359.1743 5772.1784,-343.8756 5773.232,-330.5105"/>
<polygon fill="#00ff00" stroke="#00ff00" points="5773.2378,-330.4349 5769.7218,-324.1391 5774.181,-318.472 5777.697,-324.7678 5773.2378,-330.4349"/>
<text text-anchor="middle" x="5892.9451" y="-340.6" font-family="Times,serif" font-size="14.00" fill="#000000">grasp_object(appetizer) (ProbTrans : 1,00)</text>
</g>
<!-- 13 -->
<g id="node16" class="node">
<title>13</title>
<ellipse fill="none" stroke="#40b9e5" cx="5786.6056" cy="-211.6" rx="156.2682" ry="18"/>
<text text-anchor="middle" x="5786.6056" y="-207.4" font-family="Times,serif" font-size="14.00" fill="#000000"> S13   : (reward:-0.04 ), Utility : 0.96 </text>
</g>
<!-- 12&#45;&gt;13 -->
<g id="edge13" class="edge">
<title>12-&gt;13</title>
<path fill="none" stroke="#00ff00" d="M5777.8848,-282.0006C5779.325,-270.3743 5781.2201,-255.0756 5782.8756,-241.7105"/>
<polygon fill="#00ff00" stroke="#00ff00" points="5782.8916,-241.581 5779.6596,-235.1347 5784.3669,-229.672 5787.5989,-236.1183 5782.8916,-241.581"/>
<text text-anchor="middle" x="6053.4006" y="-251.8" font-family="Times,serif" font-size="14.00" fill="#000000">move_base_blind(manipulationAreaSouthTable,preManipulationSouthTable) (ProbTrans : 1,00)</text>
</g>
<!-- 13&#45;&gt;14 -->
<g id="edge14" class="edge">
<title>13-&gt;14</title>
<path fill="none" stroke="#00ff00" d="M5786.6056,-193.2657C5786.6056,-181.8975 5786.6056,-166.9289 5786.6056,-153.3955"/>
<polygon fill="#00ff00" stroke="#00ff00" points="5786.6057,-153.0242 5782.6056,-147.0243 5786.6056,-141.0242 5790.6056,-147.0242 5786.6057,-153.0242"/>
<text text-anchor="middle" x="5965.6425" y="-163" font-family="Times,serif" font-size="14.00" fill="#000000">moveTo(preManipulationSouthTable,table2) (ProbTrans : 1,00)</text>
</g>
<!-- 15 -->
<g id="node17" class="node">
<title>15</title>
<ellipse fill="none" stroke="#40b9e5" cx="7805.6056" cy="-118.8" rx="156.2682" ry="18"/>
<text text-anchor="middle" x="7805.6056" y="-114.6" font-family="Times,serif" font-size="14.00" fill="#000000"> S15   : (reward:-0.04 ), Utility : 0.96 </text>
</g>
<!-- 13&#45;&gt;15 -->
<g id="edge15" class="edge">
<title>13-&gt;15</title>
<path fill="none" stroke="#000000" stroke-dasharray="1,5" d="M5942.5657,-210.6079C6261.8435,-207.4828 7012.7729,-194.5226 7640.6056,-140.8 7661.5313,-139.0094 7683.8734,-136.4625 7705.1413,-133.733"/>
<polygon fill="#000000" stroke="#000000" points="7708.6002,-128.2432 7709.885,-138.1603 7707.9015,-138.4173 7706.6168,-128.5001 7708.6002,-128.2432"/>
<polyline fill="none" stroke="#000000" points="7710.2343,-133.0733 7705.2757,-133.7156 "/>
<text text-anchor="middle" x="7572.9125" y="-163" font-family="Times,serif" font-size="14.00" fill="#000000">moveTo(preManipulationSouthTable,corner2) (ProbTrans : 1,00)</text>
</g>
<!-- 15&#45;&gt;16 -->
<g id="edge16" class="edge">
<title>15-&gt;16</title>
<path fill="none" stroke="#00ff00" d="M7805.6056,-100.5927C7805.6056,-88.2239 7805.6056,-71.4751 7805.6056,-56.617"/>
<polygon fill="#00ff00" stroke="#00ff00" points="7805.6057,-56.2041 7801.6056,-50.2041 7805.6056,-44.2041 7809.6056,-50.204 7805.6057,-56.2041"/>
<text text-anchor="middle" x="7927.0892" y="-66.2" font-family="Times,serif" font-size="14.00" fill="#000000">moveTo(corner2,table2) (ProbTrans : 1,00)</text>
</g>
</g>
</svg>